<svg class="site-404-graphic site-starman_graphic" width="675px" viewBox="0 0 675 596" version="1.1" xmlns="http://www.w3.org/2000/svg" xmlns:xlink="http://www.w3.org/1999/xlink">
    <g stroke="none" stroke-width="1" fill="none" fill-rule="evenodd">
        <g transform="translate(-659.000000, -149.000000)">
            <g transform="translate(185.000000, 127.000000)">
                <g transform="translate(436.000000, 0.000000)">
                    <g class="site-starman_graphic-starman" transform="translate(308.000000, 398.000000) rotate(-18.000000) translate(-308.000000, -398.000000) translate(32.000000, 306.000000)">
                        <g class="site-starman_graphic-driver" transform="translate(215.224242, 0.046836)">
                            <path d="M27.8121018,43.4897939 L78.5492655,47.6827636 L90.0609745,48.1377455 L83.6455079,57.1950061 L29.7468897,60.8025212 C29.7468897,60.8025212 4.70170182,57.3979636 9.23256242,44.9818667 C9.23256242,44.9818667 12.2334352,37.8348606 27.8121018,43.4897939" id="Fill-1" fill="#FEFEFE"></path>
                            <path d="M26.4181624,50.4594909 L77.1553261,54.6524606 L88.6670352,55.1074424 L82.2515685,64.164703 L28.3529503,67.7722182 C28.3529503,67.7722182 3.30776242,64.3676606 7.83862303,51.9515636 C7.83862303,51.9515636 10.8394958,44.8045576 26.4181624,50.4594909" id="Fill-3" fill="#CFD5CF"></path>
                            <path d="M41.3801503,16.6412945 C43.7810715,27.6913309 36.7712291,38.5963976 25.7211927,40.9984339 C14.6711564,43.4004703 3.76720485,36.3895127 1.36405333,25.3394764 C-1.03686788,14.28944 5.97297455,3.38437333 17.0230109,0.98233697 C22.2976776,-0.164038788 27.5400048,0.834021818 31.8389139,3.39329455 C36.5459685,6.19455515 40.1244897,10.8659248 41.3801503,16.6412945" id="Fill-5" fill="#FEFEFE"></path>
                            <path d="M30.3680291,31.5193115 C19.3179927,33.9213479 8.41404121,26.9103903 6.0108897,15.8603539 C5.40201697,13.0602085 5.40313212,10.2700994 5.91610182,7.62384485 C1.97069576,12.313057 0.14742303,18.70176 1.55028364,25.1540267 C3.95343515,36.204063 14.8573867,43.2139055 25.907423,40.8118691 C34.1561988,39.0187055 40.149023,32.4850327 41.6611685,24.6912388 C38.8487564,28.034463 34.9657988,30.5201358 30.3680291,31.5193115" id="Fill-7" fill="#CFD5CF"></path>
                            <path d="M41.3801503,16.6412945 C43.7810715,27.6913309 36.7712291,38.5963976 25.7211927,40.9984339 C14.6711564,43.4004703 3.76720485,36.3895127 1.36405333,25.3394764 C-1.03686788,14.28944 5.97297455,3.38437333 17.0230109,0.98233697 C22.2976776,-0.164038788 27.5400048,0.834021818 31.8389139,3.39329455 C36.5459685,6.19455515 40.1244897,10.8659248 41.3801503,16.6412945 Z" id="Stroke-9" stroke="#212121" stroke-width="3" stroke-linecap="round" stroke-linejoin="round"></path>
                            <path d="M26.4181624,43.4897939 L77.1553261,47.6827636 L88.6670352,48.1377455 L82.2515685,57.1950061 L28.3529503,60.8025212 C28.3529503,60.8025212 3.30776242,57.3979636 7.83862303,44.9818667 C7.83862303,44.9818667 10.8394958,37.8348606 26.4181624,43.4897939 Z" id="Stroke-11" stroke="#212121" stroke-width="3" stroke-linecap="round" stroke-linejoin="round"></path>
                            <path d="M97.9610424,57.4465842 C97.8450667,51.2039661 92.6908364,46.2370812 86.4482182,46.353057 C80.2056,46.4679176 75.2387152,51.6221479 75.3546909,57.8647661 L97.9610424,57.4465842 Z" id="Fill-13" fill="#FEFEFE"></path>
                            <path d="M97.9610424,57.4465842 C97.8450667,51.2039661 92.6908364,46.2370812 86.4482182,46.353057 C80.2056,46.4679176 75.2387152,51.6221479 75.3546909,57.8647661 L97.9610424,57.4465842 Z" id="Stroke-15" stroke="#212121" stroke-width="3" stroke-linecap="round" stroke-linejoin="round"></path>
                            <path d="M35.84688,6.31900606 L15.9592679,15.6115636 C15.9592679,15.6115636 15.1039467,19.0975273 16.5168436,18.771903 C18.933377,18.2143273 37.1839467,30.7575515 37.1471467,33.6402182 C37.1471467,33.6402182 48.4848921,19.3294788 35.84688,6.31900606" id="Fill-17" fill="#212121"></path>
                            <polyline id="Stroke-19" stroke="#212121" stroke-width="3" stroke-linecap="round" stroke-linejoin="round" points="5.76288 32.67104 16.3077527 30.1162279 34.3397527 35.9283976"></polyline>
                            <path d="M1.43832242,24.6602376 L11.5081406,22.4711952" id="Stroke-21" stroke="#212121" stroke-width="2" stroke-linecap="round" stroke-linejoin="round"></path>
                            <path d="M30.4562376,45.4424242 C30.4562376,45.4424242 28.7612073,50.4840242 29.6198739,51.8545455 C31.0015467,54.0603152 37.6757285,54.5376 39.9350255,53.2484848 C41.6445527,52.2738424 43.0016921,46 43.0016921,46 L30.4562376,45.4424242 Z" id="Fill-23" fill="#212121"></path>
                            <polygon id="Fill-25" fill="#212121" points="60.5653285 47.6727273 63.3532073 50.7393939 75.8986618 51.5757576 75.0622982 54.6424242 61.68048 53.8060606 56.3835103 47.6727273"></polygon>
                        </g>
                        <g class="site-starman_graphic-car_body" transform="translate(0.000000, 10.083200)">
                            <path d="M344.371389,48.5090909 C344.371389,48.5090909 316.492601,21.7454545 309.244116,15.0545455 C301.995632,8.36363636 309.244116,0.557575758 309.244116,0.557575758 L406.262298,44.6060606 L344.371389,48.3228606" id="Fill-28" fill="#194767"></path>
                            <path d="M361.891423,32.711297 C361.891423,32.711297 338.287011,21.0022061 328.436878,15.2402182 C319.921581,10.2599515 307.757508,0.929478788 307.757508,0.929478788 L404.77569,44.9779636 L369.511253,35.3129455 L361.891423,32.711297 Z" id="Fill-30" fill="#1A3850"></path>
                            <path d="M77.6650618,30.4809939 L19.3047224,28.994497 C19.3047224,28.994497 2.01987394,30.1096485 13.1713891,42.9338909 C13.1713891,42.9338909 2.01987394,44.6066182 6.48048,60.2187394 C6.48048,60.2187394 -10.7553018,62.0765818 10.9901527,123.409915 C10.9901527,123.409915 12.869183,126.220097 14.2006739,126.554642 C19.5779345,127.908436 33.440383,131.340873 36.5895709,131.588436 C43.7008921,132.146012 143.086541,137.164194 143.086541,137.164194 L387.862298,133.818739 L494.96591,133.261164 C494.96591,133.261164 527.82608,133.083855 535.062298,127.685406 C542.609644,122.055006 551.231995,93.6732848 551.231995,93.6732848 C551.231995,93.6732848 556.807753,66.9096485 465.922904,48.5096485 C465.922904,48.5096485 414.068359,39.5884364 387.862298,36.8005576 L404.589571,44.6066182 L347.141425,48.2297455 L342.698662,48.5096485 L247.910783,48.5096485 C247.910783,48.5096485 222.262298,46.8369212 202.747147,8.36419394 L41.2364073,36.9856727" id="Fill-32" fill="#E53046"></path>
                            <path d="M144.044902,137.042754 C145.300562,132.346851 145.978575,127.414536 145.978575,122.322754 C145.978575,90.8977842 120.504053,65.4221479 89.0779685,65.4221479 C57.6529988,65.4221479 32.1784776,90.8977842 32.1784776,122.322754 C32.1784776,124.946705 32.3702836,127.523821 32.7148655,130.052984 L144.044902,137.042754 Z" id="Fill-34" fill="#AE3B46"></path>
                            <path d="M508.570982,132.267452 C509.426303,128.342119 509.890206,124.272931 509.890206,120.092228 C509.890206,88.6672582 484.41457,63.192737 452.9896,63.192737 C421.56463,63.192737 396.088994,88.6672582 396.088994,120.092228 C396.088994,125.014507 396.714594,129.789585 397.889964,134.344979 L508.570982,132.267452 Z" id="Fill-36" fill="#AE3B46"></path>
                            <path d="M69.2916121,42.6638012 L197.054521,20.0730618 C216.986739,59.3698861 243.184994,61.0782982 243.184994,61.0782982 L340.003564,61.0782982 L344.54223,60.7917042 L403.220388,57.0916315 C403.220388,57.0916315 449.217042,56.8139588 466.343539,59.1033648 C521.359539,66.4555588 544.972873,86.4111952 550.880945,95.9100558 C551.107321,95.1974739 551.233333,94.7882133 551.233333,94.7882133 C551.233333,94.7882133 556.809091,68.024577 465.924242,49.624577 C465.924242,49.624577 414.069697,40.7033648 387.863636,37.9154861 L404.590909,45.7215467 L347.141648,49.3446739 L342.7,49.624577 L247.912121,49.624577 C247.912121,49.624577 222.263636,47.9518497 202.748485,9.47912242 L41.2366303,38.1006012 L77.6652848,31.5959224 L19.3060606,30.1094255 C19.3060606,30.1094255 6.53646061,30.0257891 12.8493333,40.1457891 L69.2916121,42.6638012 Z" id="Fill-38" fill="#E96650"></path>
                            <path d="M78.2226376,30.4809939 L19.8622982,28.994497 C19.8622982,28.994497 2.5774497,30.1096485 13.7289648,42.9338909 C13.7289648,42.9338909 2.5774497,44.6066182 7.03805576,60.2187394 C7.03805576,60.2187394 -10.1977261,62.0765818 11.5477285,123.409915 C11.5477285,123.409915 13.4267588,126.220097 14.7582497,126.554642 C20.1355103,127.908436 33.9979588,131.340873 37.1471467,131.588436 C44.2584679,132.146012 143.644116,137.164194 143.644116,137.164194 L388.419874,133.818739 L495.523486,133.261164 C495.523486,133.261164 528.383656,133.083855 535.619874,127.685406 C543.167219,122.055006 551.789571,93.6732848 551.789571,93.6732848 C551.789571,93.6732848 557.365328,66.9096485 466.48048,48.5096485 C466.48048,48.5096485 414.625935,39.5884364 388.419874,36.8005576 L405.147147,44.6066182 L347.699001,48.2297455 L343.256238,48.5096485 L248.468359,48.5096485 C248.468359,48.5096485 222.819874,46.8369212 203.304722,8.36419394 L41.793983,36.9856727" id="Stroke-40" stroke="#212121" stroke-width="3" stroke-linecap="round" stroke-linejoin="round"></path>
                            <path d="M343.256238,48.5090909 C343.256238,48.5090909 315.37745,21.7454545 308.128965,15.0545455 C300.88048,8.36363636 308.128965,0.557575758 308.128965,0.557575758 L405.147147,44.6060606 L343.256238,48.3228606" id="Stroke-42" stroke="#212121" stroke-width="3" stroke-linecap="round" stroke-linejoin="round"></path>
                            <path d="M308.128965,0.557575758 L309.801692,9.8969697 L353.710783,47.5333333 L343.256238,48.3228606 L308.128965,15.0545455 C308.128965,15.0545455 301.810516,9.10744242 308.128965,0.557575758" id="Fill-44" fill="#212121"></path>
                            <path d="M320.305304,33.5939394 C320.305304,33.5939394 317.378032,45.8606061 326.15985,50.7393939 C334.941668,55.6181818 339.95985,41.8181818 339.95985,41.8181818 C339.95985,41.8181818 339.541668,33.3151515 320.305304,33.5939394" id="Fill-46" fill="#E53046"></path>
                            <path d="M319.655059,35.7311273 C319.655059,35.7311273 323.456611,33.1272485 329.087011,41.4462788 C335.312902,50.6462788 340.517314,44.3267152 340.517314,44.3267152 C340.517314,44.3267152 338.565799,29.9234182 319.655059,35.7311273" id="Fill-48" fill="#AE3B46"></path>
                            <path d="M320.953207,33.7333333 C320.953207,33.7333333 318.025935,46 326.807753,50.8787879 C335.589571,55.7575758 340.607753,41.9575758 340.607753,41.9575758 C340.607753,41.9575758 340.189571,33.4545455 320.953207,33.7333333 Z" id="Stroke-50" stroke="#231F20" stroke-width="3" stroke-linecap="round" stroke-linejoin="round"></path>
                            <g id="Group-55" transform="translate(133.818182, 113.745455)">
                                <path d="M274.953207,1.67272727 L0.162031515,0.557575758" id="Fill-52" fill="#FEFEFE"></path>
                                <path d="M274.953207,1.67272727 L0.162031515,0.557575758" id="Stroke-54" stroke="#212121" stroke-width="3" stroke-linecap="round" stroke-linejoin="round"></path>
                            </g>
                            <path d="M361.656238,47.3939394 C361.656238,47.3939394 379.498662,73.6178424 356.638056,115.231952" id="Stroke-56" stroke="#212121" stroke-width="2" stroke-linecap="round" stroke-linejoin="round"></path>
                            <path d="M27.6683588,55.7575758 C27.6683588,55.7575758 63.5383224,81.0347152 71.5317285,81.0347152" id="Stroke-58" stroke="#231F20" stroke-width="2" stroke-linecap="round" stroke-linejoin="round"></path>
                            <path d="M157.58351,15.6121212 L147.171341,38.1995152 L128.082177,37.536 C128.082177,37.536 101.473547,65.4382061 103.208722,78.0606061" id="Stroke-60" stroke="#212121" stroke-width="2" stroke-linecap="round" stroke-linejoin="round"></path>
                            <path d="M7.03805576,60.2181818 L10.9410861,64.6787879 L27.110783,55.2 C27.110783,55.2 28.7835103,47.3939394 13.7289648,42.9333333 C13.7289648,42.9333333 2.39233455,46.0925576 7.03805576,60.2181818" id="Fill-62" fill="#212121"></path>
                            <path d="M7.03805576,60.2181818 L10.9410861,64.6787879 L27.110783,55.2 C27.110783,55.2 28.7835103,47.3939394 13.7289648,42.9333333 C13.7289648,42.9333333 2.39233455,46.0925576 7.03805576,60.2181818 Z" id="Stroke-64" stroke="#212121" stroke-width="3" stroke-linecap="round" stroke-linejoin="round"></path>
                            <path d="M188.250177,11.7090909 C188.250177,11.7090909 197.728965,45.7212121 190.48048,48.5090909 C183.231995,51.2969697 217.244116,114.860606 217.244116,114.860606" id="Stroke-66" stroke="#212121" stroke-width="2" stroke-linecap="round" stroke-linejoin="round"></path>
                            <path d="M482.650177,88.0969697 L517.592335,64.3074424" id="Stroke-68" stroke="#212121" stroke-width="2" stroke-linecap="round" stroke-linejoin="round"></path>
                            <path d="M179.318148,34.7499055 C179.318148,38.8525479 175.992766,42.1779297 171.889008,42.1779297 C167.786366,42.1779297 164.460984,38.8525479 164.460984,34.7499055 C164.460984,30.647263 167.786366,27.3207661 171.889008,27.3207661 C175.992766,27.3207661 179.318148,30.647263 179.318148,34.7499055 Z" id="Stroke-70" stroke="#212121" stroke-width="2" stroke-linecap="round" stroke-linejoin="round"></path>
                        </g>
                        <g class="site-starman_graphic-wheels" transform="translate(39.030303, 80.337745)">
                            <path d="M93.7748752,54.2340558 C93.7748752,78.5700073 74.0467297,98.2992679 49.709663,98.2992679 C25.3725964,98.2992679 5.64445091,78.5700073 5.64445091,54.2340558 C5.64445091,29.8969891 25.3725964,10.1677285 49.709663,10.1677285 C74.0467297,10.1677285 93.7748752,29.8969891 93.7748752,54.2340558" id="Fill-73" fill="#848C93"></path>
                            <path d="M50.4690812,89.7141624 L49.4141479,89.7141624 C46.0196267,89.7398109 42.6396024,89.269217 39.3811297,88.3157624 C38.036257,88.1484897 37.0816873,86.921823 37.2500752,85.5769503 C37.2824145,85.3193503 37.3548994,85.0673261 37.4664145,84.8320291 C38.2269479,82.2314958 39.1592145,79.4592291 40.4104145,76.1472291 C41.2835782,73.7697261 42.3240145,71.458017 43.5261479,69.2288291 C44.0078933,68.3512048 44.5844267,67.528223 45.2434812,66.7754958 C45.9036509,66.0060412 46.9162085,65.6346958 47.9176145,65.7941624 C48.6513842,65.8666473 49.3918448,65.8666473 50.1256145,65.7941624 C51.218463,65.6759564 52.2767418,66.2156897 52.8242812,67.1680291 C53.5480145,68.3679321 54.0464873,69.6893867 54.2973964,71.0688291 C54.7456873,73.1987685 55.0735418,75.3532412 55.2776145,77.5199806 C55.5229479,79.7290958 55.6957964,82.1333624 55.8664145,84.8810958 L55.8664145,85.2000291 C55.9154812,85.9025745 55.9154812,86.6073503 55.8664145,87.3098958 C55.7894691,88.3380655 55.0188994,89.1800048 54.0018812,89.3461624 C53.1409842,89.4933624 52.2733964,89.5825745 51.4013479,89.6160291 L50.4690812,89.7141624 Z" id="Fill-75" fill="#212121"></path>
                            <path d="M62.9568824,86.8685188 C62.0469188,86.8640582 61.2384339,86.2830642 60.9451491,85.419937 C60.5526158,84.4642521 60.2336824,83.4829188 59.9136339,82.4770521 L59.5958158,81.5447855 C58.6390158,78.6498521 57.6331491,75.8028703 56.6272824,72.9570036 L55.4251491,69.5714036 C55.0816824,68.5666521 54.8118158,67.6343855 54.5910158,66.7266521 C54.4326642,65.7665067 54.8553067,64.8041309 55.6704824,64.2722036 C56.5369552,63.6309915 57.7234764,63.6309915 58.5899491,64.2722036 C59.2055127,64.7561794 59.7731248,65.298143 60.2827491,65.8914036 C62.1472824,67.9287855 63.8155491,70.1122521 65.4347491,72.2210036 C67.5446158,74.968737 69.1392824,77.1287855 70.6112824,79.2141188 C70.8053188,79.4683733 70.9770521,79.73824 71.1264824,80.0226036 C71.2692218,80.1709188 71.3918885,80.3359612 71.4944824,80.5143855 L71.6171491,81.003937 C71.6651006,81.7577794 71.3339006,82.4848582 70.7339491,82.9420703 C70.0537067,83.469537 69.3411248,83.9535127 68.5995491,84.389537 C67.3349673,85.1868703 66.0146279,85.8916461 64.6496824,86.5005188 C64.4355733,86.6008824 64.2147733,86.6822885 63.9872824,86.7458521 C63.6638885,86.8517915 63.321537,86.8930521 62.9803006,86.8685188 L62.9568824,86.8685188 Z" id="Fill-77" fill="#212121"></path>
                            <path d="M29.3214594,83.1146958 C28.6501382,83.0600533 28.0145018,82.7935321 27.5059927,82.3530473 C25.7273261,81.0393988 24.0847079,79.5529018 22.5993261,77.9136291 C21.9982594,77.3794715 21.6648291,76.6066715 21.6915927,75.8026473 C21.8053382,74.998623 22.2848533,74.2927321 22.9918594,73.8901624 C24.1203927,73.0314958 25.2489261,72.1717139 26.4019927,71.4357139 C28.4137261,69.9648291 30.2046594,68.5909624 32.0201261,67.2170958 L35.8473261,64.3210473 C36.6870352,63.6709139 37.5724655,63.0809988 38.4980412,62.5546473 C38.8303564,62.3327321 39.2061624,62.1821867 39.6009261,62.1141624 C40.4752048,62.110817 41.2937261,62.5434958 41.7843927,63.2672291 C42.3375079,63.9943079 42.4423321,64.9678352 42.0542594,65.7941624 C41.5368291,66.9572655 40.9212655,68.0735321 40.2142594,69.1306958 C38.1289261,72.4181624 35.9699927,75.4602958 33.3694594,79.1157624 L33.1486594,79.4101624 C32.5442473,80.2933624 31.9052655,81.1520291 31.2350594,81.9850473 C30.7934594,82.6251442 30.0931442,83.0366352 29.3214594,83.1146958" id="Fill-79" fill="#212121"></path>
                            <path d="M77.43088,75.2149624 C76.8164315,75.174817 76.2276315,74.9529018 75.73808,74.5770958 C73.2847467,72.9088291 70.8314133,71.0933624 68.9178133,69.5232291 C66.9618376,67.9943564 65.0939588,66.3573139 63.3253285,64.6165624 C62.3908315,63.7121745 61.5656194,62.6973867 60.87088,61.5989624 C60.3121891,60.7380655 60.2564315,59.6418715 60.7247952,58.7285624 C61.0459588,58.0315927 61.3080194,57.3089745 61.5098618,56.5685139 C61.7462739,55.5448048 62.5447224,54.7452412 63.5695467,54.5088291 C64.5586861,54.280223 65.5757042,54.2043927 66.5871467,54.2869139 C68.5263952,54.3839321 70.453377,54.6303806 72.35248,55.0240291 C75.73808,55.6853139 79.2474618,56.4960291 82.7546133,57.4773624 C83.0322861,57.5531927 83.3032679,57.6513261 83.5642133,57.7706473 C84.7518497,58.1163442 85.4421285,59.3519321 85.1109285,60.5440291 C84.9135467,61.5498958 84.6682133,62.5312291 84.3983467,63.4869139 C83.3199952,67.1769503 81.6651103,70.67072 79.4927952,73.8410958 C79.1036073,74.6373139 78.3163103,75.1625503 77.43088,75.2149624" id="Fill-81" fill="#212121"></path>
                            <polygon id="Fill-83" fill="#020303" points="83.2211927 60.2007855 81.4302594 59.7837188 83.2211927 60.1517188 81.4302594 59.7837188"></polygon>
                            <path d="M18.5761939,70.0138958 C17.723103,70.0317382 16.9413818,69.5388412 16.5889939,68.7626958 C16.1719273,67.9519806 15.8529939,67.1189624 15.5095273,66.3093624 C14.6129455,63.9285139 13.9628121,61.4629139 13.5713939,58.9493624 C13.3349818,57.4059927 13.2033939,55.8492412 13.1788606,54.2869139 C13.0706909,53.0457503 13.9884606,51.9517867 15.2307394,51.8425018 C15.2820364,51.8380412 15.3344485,51.8346958 15.3868606,51.8346958 C16.5388121,51.7744776 17.6929939,51.7744776 18.8460606,51.8346958 L21.0295273,51.8346958 C23.0646788,51.8346958 25.3719273,51.9573624 27.6289939,52.1525139 C29.646303,52.2528776 31.6513455,52.5405867 33.6140121,53.0122958 C34.2708364,53.1862594 34.9109333,53.4159806 35.5287273,53.6992291 C36.4219636,54.0649988 37.0687515,54.8601018 37.2460606,55.8090958 C37.3899152,56.6488048 37.6196364,57.4706715 37.9318788,58.2624291 C38.2430061,59.1657018 38.0456242,60.1671079 37.4177939,60.8863806 C36.6572606,61.8554473 35.7361455,62.68512 34.6945939,63.3408291 C32.6126061,64.5518836 30.4570182,65.6324655 28.2423273,66.5792291 C24.8801455,67.9285624 22.4279273,68.9589624 19.9745939,69.8421624 L19.4828121,69.9893624 C19.1962182,70.0707685 18.8995879,70.1120291 18.5996121,70.1120291 L18.5761939,70.0138958 Z" id="Fill-85" fill="#212121"></path>
                            <polygon id="Fill-87" fill="#020303" points="18.5761939 66.3580945 19.3367273 68.002943 18.7468121 66.3580945"></polygon>
                            <path d="M19.949503,67.0942061 L19.9740364,67.0942061 L19.949503,67.0942061 Z" id="Fill-89" fill="#020303"></path>
                            <path d="M65.3362812,52.7910497 L63.6680145,52.7910497 C62.3197964,52.9270982 61.117663,51.9435345 60.9816145,50.5953164 C60.8734448,49.5158497 61.4867782,48.4932558 62.4904145,48.0806497 C63.5509236,47.434977 64.6683055,46.8840921 65.8269479,46.4369164 C69.9730812,44.7697648 74.4637964,43.1985164 80.5469479,41.3350982 C80.8045479,41.2458861 81.0666085,41.1722861 81.3320145,41.113183 C82.5163055,40.7630255 83.7630448,41.4298861 84.1299297,42.6097164 C84.4477479,43.5910497 84.7176145,44.572383 84.9384145,45.5782497 C85.250657,46.9454255 85.479263,48.3304436 85.6253479,49.724383 C85.7669721,50.4347345 85.5874327,51.1707345 85.1346812,51.7361164 C84.6384388,52.2736194 83.9280873,52.5624436 83.197663,52.521183 L76.5480145,52.521183 L66.0232145,52.7910497 L65.3362812,52.7910497 Z" id="Fill-91" fill="#212121"></path>
                            <path d="M35.8229042,50.38656 C34.7858133,50.2750448 33.7598739,50.0787782 32.7562376,49.7988752 C27.3098376,48.4238933 21.9615709,46.7322085 17.3493042,45.2100267 C17.0147588,45.1007418 16.6869042,44.9702691 16.3679709,44.8186085 C15.2628558,44.4517236 14.6617891,43.2562812 15.0297891,42.1511661 C15.0409406,42.1154812 15.0543224,42.0809115 15.0677042,42.0463418 C15.3375709,41.18656 15.6565042,40.3524267 15.9999709,39.5918933 C16.61888,38.1533479 17.3236558,36.7516024 18.1098376,35.3978085 C18.4142739,34.7911661 18.9562376,34.3372994 19.6063709,34.1466085 C20.2631952,34.0127903 20.9456679,34.1544145 21.4954376,34.5380267 C22.3541042,35.07776 23.1637042,35.6676752 23.9487709,36.25536 L24.6847709,36.7950933 C26.6965042,38.2191418 28.7082376,39.64096 30.7445042,41.03936 L35.2095709,44.1316752 C36.0782739,44.7182448 36.8990255,45.3750691 37.6629042,46.0932267 C38.6520436,47.1158206 38.62528,48.7472873 37.6026861,49.7364267 C37.1242861,50.1980994 36.4875345,50.4568145 35.8229042,50.46016 L35.8229042,50.38656 Z" id="Fill-93" fill="#212121"></path>
                            <path d="M16.8097939,42.6099394 L18.5516606,43.1987394 L16.8097939,42.6099394 Z" id="Fill-95" fill="#020303"></path>
                            <path d="M59.8411491,45.3825406 C59.170943,45.3769648 58.5297309,45.1126739 58.0502158,44.6465406 C57.4357673,44.0711224 56.771137,43.5536921 56.0630158,43.1009406 C55.2010036,42.5288679 54.7203733,41.5308073 54.8118158,40.5004073 C54.9378279,39.2046012 55.2679127,37.9377891 55.7931491,36.7468073 C56.8402764,34.3626133 58.0457552,32.0520194 59.3995491,29.8284073 C60.7968339,27.3750739 62.0971006,25.3376921 63.4230158,23.3761406 C63.5880582,23.1118497 63.7687127,22.8587103 63.9627491,22.6156073 C64.6151127,21.5807467 65.9677915,21.2439709 67.0294158,21.8539588 C68.9296339,22.9166982 70.7361794,24.1389042 72.4267491,25.5105406 C74.6280582,27.3014739 76.6119127,29.3433164 78.3392824,31.5948073 C79.1388461,32.4969648 79.0540945,33.8775224 78.1508218,34.6759709 C78.1095612,34.7150012 78.0649552,34.7495709 78.0203491,34.7841406 C77.2977309,35.4130861 76.5360824,35.99408 75.7387491,36.5260073 L75.3216824,36.8449406 C72.2260218,39.1031224 69.0177309,41.1996073 65.7046158,43.1254739 C64.3162521,43.9495709 62.843137,44.6231224 61.3131491,45.1360921 L60.5526158,45.3089406 L60.0374158,45.3089406 L59.8411491,45.3825406 Z" id="Fill-97" fill="#212121"></path>
                            <path d="M39.846817,44.6702933 C39.442017,44.6624873 39.0427927,44.5799661 38.6681018,44.42496 C37.7882473,44.005663 36.9641503,43.4793115 36.2147685,42.8548267 C34.8152533,41.7296388 33.488223,40.5163539 32.2414836,39.2238933 C29.910817,36.77056 27.555617,34.0484752 25.0286836,30.9070933 C24.8591806,30.7052509 24.7030594,30.492257 24.5625503,30.2692267 L24.390817,30.0238933 C23.7206109,29.057057 23.9380655,27.7333721 24.8803685,27.0319418 C27.3047079,24.788257 30.0189867,22.882463 32.9518352,21.3647418 C34.4896291,20.5774448 36.0798352,19.8960873 37.712417,19.32736 C38.8130715,18.8701479 40.0765382,19.3931539 40.5337503,20.4938085 C40.5415564,20.5138812 40.5504776,20.5339539 40.5582836,20.5540267 C40.8705261,21.2465358 41.1325867,21.9602327 41.3433503,22.6884267 C42.6057018,26.488863 43.6617503,30.3539782 44.5081503,34.2692752 C44.888417,35.8773236 45.1036412,37.5221721 45.146017,39.1748267 L45.146017,40.4516752 C45.0489988,41.3471418 44.5159564,42.1366691 43.7230836,42.5604267 C42.9803927,42.9830691 42.2745018,43.46816 41.613217,44.0078933 C41.1225503,44.4327661 40.49472,44.6669479 39.846817,44.6702933" id="Fill-99" fill="#212121"></path>
                            <path d="M50.71408,41.3837188 L50.4453285,41.3837188 C49.3469042,41.3357673 48.4146376,40.5640824 48.1637285,39.4946521 C47.9161648,38.3393552 47.7611588,37.1662158 47.69648,35.9852703 C47.5002133,33.3356703 47.4277285,30.7117188 47.3786618,27.9149188 L47.3786618,27.3015855 L47.3786618,24.8482521 L47.3786618,20.1133188 C47.36528,19.8847127 47.36528,19.6549915 47.3786618,19.4263855 C47.4176921,18.2699733 48.381183,17.36224 49.53648,17.3890036 C50.8568194,17.3968097 52.1760436,17.4782158 53.4863467,17.6354521 C54.6974012,17.7692703 55.9017648,17.9666521 57.0938618,18.223137 C57.7484558,18.3090036 58.3406012,18.6535855 58.73648,19.1810521 C59.0554133,19.7207855 59.1368194,20.3698036 58.9583952,20.9708703 C58.7621285,21.7815855 58.4922618,22.5900703 58.2469285,23.4253188 L58.0495467,23.9884703 C56.9210133,27.4978521 55.86608,31.0306521 54.8122618,34.5868703 L54.1487467,36.7959855 C53.8465406,37.8721067 53.4785406,38.9292703 53.0458618,39.9607855 C52.6399467,40.8384097 51.7556315,41.3959855 50.78768,41.3837188 L50.71408,41.3837188 Z" id="Fill-101" fill="#212121"></path>
                            <path d="M49.4138133,86.0343855 L51.0330133,86.0343855 L52.2117285,86.0343855 L52.2117285,85.5682521 L52.2117285,85.1746036 C52.0634133,82.5015855 51.8671467,80.2690521 51.6474618,78.0119855 C51.45008,75.98464 51.1478739,73.9706764 50.7386133,71.9767855 C50.5735709,71.1315006 50.3103952,70.3074036 49.9535467,69.522337 C49.2353891,69.5714036 48.5138861,69.5714036 47.7957285,69.522337 C47.4065406,69.9929309 47.0697648,70.5025552 46.7887467,71.0445188 C45.6847467,73.11424 44.7335224,75.263137 43.9439952,77.471137 C42.83888,80.3426521 42.0047467,82.770337 41.3178133,85.051937 C43.9607224,85.7422158 46.6839224,86.0723006 49.4138133,86.0343855" id="Fill-103" fill="#74848C"></path>
                            <path d="M59.767103,70.7010521 L60.0860364,71.6076703 C61.1164364,74.5026036 62.122303,77.3730036 63.1036364,80.2690521 L63.4225697,81.2503855 C63.5697697,81.739937 63.7169697,82.2060703 63.888703,82.6978521 C64.7473697,82.255137 65.655103,81.7655855 66.5873697,81.1767855 L67.347903,80.7106521 C65.9740364,78.7970521 64.4786182,76.7853188 62.4412364,74.2338521 C61.680703,73.1532703 60.723903,71.9020703 59.767103,70.7010521" id="Fill-105" fill="#74848C"></path>
                            <path d="M26.0828364,76.1961842 C27.0028364,77.144063 27.9774788,78.0361842 29.002303,78.8692024 L30.253503,77.1518691 L30.474303,76.8340509 C32.6332364,73.8409842 34.4732364,71.2404509 36.1905697,68.6153842 L34.301503,70.0383176 C32.4860364,71.4356024 30.6471515,72.8105842 28.8060364,74.1844509 L26.0828364,76.1961842 Z" id="Fill-107" fill="#74848C"></path>
                            <path d="M64.1340364,60.0526933 C64.6380848,60.7942691 65.2224242,61.4767418 65.875903,62.08896 C67.5497455,63.6970085 69.3116848,65.2124994 71.1505697,66.6276267 C72.9660364,68.0516752 74.9041697,69.5482085 76.9649697,70.9700267 C78.6365818,68.3404994 79.9167758,65.4801358 80.7676364,62.4826085 C80.9393697,61.9674085 81.0631515,61.42656 81.184703,60.8868267 C77.9474182,60.0036267 74.7324364,59.2430933 71.5921697,58.6542933 C69.8770667,58.29856 68.1396606,58.0688388 66.391103,57.9684752 C65.8859394,57.9026812 65.3752,57.9026812 64.8700364,57.9684752 C64.6670788,58.6777115 64.4206303,59.3735661 64.1340364,60.0526933" id="Fill-109" fill="#74848C"></path>
                            <path d="M16.9317915,55.4657406 C16.979743,56.4604558 17.0867976,57.4518255 17.2507248,58.4342739 C17.597537,60.68688 18.1729552,62.8982255 18.9680582,65.0337406 L19.4107733,66.0875588 C21.5451733,65.2790739 23.8501915,64.3468073 26.7696582,63.0956073 C28.8338036,62.2135224 30.8410764,61.2043103 32.7803248,60.0780073 C33.3512824,59.7401164 33.8843248,59.3453527 34.3761067,58.9004073 C34.1341188,58.2268558 33.936737,57.5376921 33.7861915,56.8384921 L32.7557915,56.4961406 C30.9737794,56.0969164 29.1594279,55.851583 27.3339248,55.7601406 C25.1504582,55.5872921 22.9179248,55.5148073 20.9809067,55.4657406 L16.9317915,55.4657406 Z" id="Fill-111" fill="#74848C"></path>
                            <path d="M80.9147248,44.9893382 C76.27904,46.4613382 72.5488582,47.7370715 69.1632582,49.0373382 L76.4005915,48.8410715 L81.7488582,48.8410715 C81.6016582,47.98352 81.4544582,47.1728048 81.2827248,46.3877382 C81.1121067,45.6026715 81.0373915,45.4309382 80.9147248,44.9893382" id="Fill-113" fill="#74848C"></path>
                            <path d="M19.0172364,41.9226715 C22.6481697,43.1013867 26.7463515,44.3760048 30.9404364,45.5536048 L28.6833697,43.9845867 C26.6225697,42.5605382 24.586303,41.1621382 22.5500364,39.7157867 L21.789503,39.15152 L20.6620848,38.3408048 C20.1948364,39.1916655 19.7777697,40.0681745 19.4108848,40.9669867 C19.2636848,41.2602715 19.139903,41.6037382 19.0172364,41.9226715" id="Fill-115" fill="#74848C"></path>
                            <path d="M58.5408824,40.3284509 C59.1207612,40.7209842 59.6694158,41.1547782 60.1846158,41.6287176 C61.452543,41.2083055 62.6702885,40.6484994 63.8144339,39.9604509 C67.0405673,38.1026085 70.1696824,36.0797236 73.1872824,33.9007176 L73.6043491,33.5817842 L74.6102158,32.8703176 C73.2486158,31.2444267 71.7375855,29.7490085 70.0960824,28.4052509 C68.8906036,27.4294933 67.6204461,26.5351418 66.2934158,25.7311176 C65.0912824,27.5711176 63.8400824,29.5337842 62.5632339,31.7417842 C61.3075733,33.8059297 60.1924218,35.9537115 59.2278158,38.1684024 C58.9010764,38.8553358 58.67024,39.5812994 58.5408824,40.3284509" id="Fill-117" fill="#74848C"></path>
                            <path d="M28.1682812,28.9939394 C30.6216145,31.9134061 32.7560145,34.4648727 34.9394812,36.7710061 C36.0278691,37.9329939 37.1831661,39.030303 38.3986812,40.0584727 C38.8012509,40.3774061 39.2272388,40.6651152 39.6744145,40.9171394 C40.2331055,40.494497 40.8152145,40.1008485 41.4162812,39.7395394 C41.4028994,39.6503273 41.4028994,39.56 41.4162812,39.4696727 C41.3950933,37.9965576 41.2055176,36.5323636 40.8520145,35.1027394 C40.0334933,31.3781333 39.0097842,27.7003636 37.7853479,24.0872727 C37.7217842,23.8363636 37.6403782,23.5899152 37.5400145,23.3512727 C36.5018085,23.7527273 35.4859055,24.2110545 34.4978812,24.7251394 C32.2263176,25.892703 30.1008388,27.3256727 28.1682812,28.9939394" id="Fill-119" fill="#74848C"></path>
                            <path d="M51.0092606,21.0692267 L51.0092606,24.7503418 L51.0092606,27.20256 L51.0092606,27.7422933 C51.0092606,29.70496 51.0092606,31.5694933 51.1798788,33.3860752 C52.2359273,29.8276267 53.2908606,26.2702933 54.4439273,22.7374933 L54.6145455,22.1498085 C54.6145455,21.90336 54.7873939,21.6580267 54.8609939,21.4138085 L53.0700606,21.1684752 C52.4098909,21.1026812 51.7463758,21.0703418 51.0817455,21.0692267 L51.0092606,21.0692267 Z" id="Fill-121" fill="#74848C"></path>
                            <path d="M49.4138133,4.46060606 C22.3156315,4.46060606 0.347146667,26.4279758 0.347146667,53.5272727 C0.347146667,80.6265697 22.3156315,102.593939 49.4138133,102.593939 C76.5131103,102.593939 98.48048,80.6265697 98.48048,53.5272727 C98.48048,26.4279758 76.5131103,4.46060606 49.4138133,4.46060606 M49.4138133,11.8206061 C72.448383,11.8206061 91.12048,30.4938182 91.12048,53.5272727 C91.12048,76.5607273 72.448383,95.2339394 49.4138133,95.2339394 C26.3803588,95.2339394 7.70826182,76.5607273 7.70826182,53.5272727 C7.70826182,30.4938182 26.3803588,11.8206061 49.4138133,11.8206061" id="Fill-123" fill="#212121"></path>
                            <path d="M49.4138133,49.8474958 C51.4467345,49.8474958 53.0949285,51.4956897 53.0949285,53.5274958 C53.0949285,55.5593018 51.4467345,57.2074958 49.4138133,57.2074958 C47.3820073,57.2074958 45.7338133,55.5593018 45.7338133,53.5274958 C45.7338133,51.4956897 47.3820073,49.8474958 49.4138133,49.8474958" id="Fill-125" fill="#020303"></path>
                            <path d="M458.429421,49.7734497 C458.429421,74.1094012 438.701275,93.8386618 414.364208,93.8386618 C390.027142,93.8386618 370.298996,74.1094012 370.298996,49.7734497 C370.298996,25.436383 390.027142,5.70712242 414.364208,5.70712242 C438.701275,5.70712242 458.429421,25.436383 458.429421,49.7734497" id="Fill-127" fill="#848C93"></path>
                            <path d="M415.123627,85.2535564 L414.068693,85.2535564 C410.674172,85.2792048 407.294148,84.8086109 404.035675,83.8551564 C402.690802,83.6878836 401.736233,82.461217 401.904621,81.1163442 C401.93696,80.8587442 402.009445,80.60672 402.12096,80.371423 C402.881493,77.7708897 403.81376,74.998623 405.06496,71.686623 C405.938124,69.30912 406.97856,66.9974109 408.180693,64.768223 C408.662439,63.8905988 409.238972,63.067617 409.898027,62.3148897 C410.558196,61.5454352 411.570754,61.1740897 412.57216,61.3335564 C413.30593,61.4060412 414.04639,61.4060412 414.78016,61.3335564 C415.873008,61.2153503 416.931287,61.7550836 417.478827,62.707423 C418.20256,63.9073261 418.701033,65.2287806 418.951942,66.608223 C419.400233,68.7381624 419.728087,70.8926352 419.93216,73.0593745 C420.177493,75.2684897 420.350342,77.6727564 420.52096,80.4204897 L420.52096,80.739423 C420.570027,81.4419685 420.570027,82.1467442 420.52096,82.8492897 C420.444015,83.8774594 419.673445,84.7193988 418.656427,84.8855564 C417.79553,85.0327564 416.927942,85.1219685 416.055893,85.155423 L415.123627,85.2535564 Z" id="Fill-129" fill="#212121"></path>
                            <path d="M427.611316,82.4079127 C426.701353,82.4034521 425.892868,81.8224582 425.599583,80.9593309 C425.20705,80.0036461 424.888116,79.0223127 424.568068,78.0164461 L424.25025,77.0841794 C423.29345,74.1892461 422.287583,71.3422642 421.281716,68.4963976 L420.079583,65.1107976 C419.736116,64.1060461 419.46625,63.1737794 419.24545,62.2660461 C419.087098,61.3059006 419.509741,60.3435248 420.324916,59.8115976 C421.191389,59.1703855 422.37791,59.1703855 423.244383,59.8115976 C423.859947,60.2955733 424.427559,60.837537 424.937183,61.4307976 C426.801716,63.4681794 428.469983,65.6516461 430.089183,67.7603976 C432.19905,70.5081309 433.793716,72.6681794 435.265716,74.7535127 C435.459753,75.0077673 435.631486,75.2776339 435.780916,75.5619976 C435.923656,75.7103127 436.046322,75.8753552 436.148916,76.0537794 L436.271583,76.5433309 C436.319535,77.2971733 435.988335,78.0242521 435.388383,78.4814642 C434.708141,79.0089309 433.995559,79.4929067 433.253983,79.9289309 C431.989401,80.7262642 430.669062,81.43104 429.304116,82.0399127 C429.090007,82.1402764 428.869207,82.2216824 428.641716,82.2852461 C428.318322,82.3911855 427.975971,82.4324461 427.634735,82.4079127 L427.611316,82.4079127 Z" id="Fill-131" fill="#212121"></path>
                            <path d="M393.976005,78.6540897 C393.304684,78.5994473 392.669047,78.3329261 392.160538,77.8924412 C390.381872,76.5787927 388.739253,75.0922958 387.253872,73.453023 C386.652805,72.9188655 386.319375,72.1460655 386.346138,71.3420412 C386.459884,70.538017 386.939399,69.8321261 387.646405,69.4295564 C388.774938,68.5708897 389.903472,67.7111079 391.056538,66.9751079 C393.068272,65.504223 394.859205,64.1303564 396.674672,62.7564897 L400.501872,59.8604412 C401.341581,59.2103079 402.227011,58.6203927 403.152587,58.0940412 C403.484902,57.8721261 403.860708,57.7215806 404.255472,57.6535564 C405.12975,57.6502109 405.948272,58.0828897 406.438938,58.806623 C406.992053,59.5337018 407.096878,60.5072291 406.708805,61.3335564 C406.191375,62.4966594 405.575811,63.6129261 404.868805,64.6700897 C402.783472,67.9575564 400.624538,70.9996897 398.024005,74.6551564 L397.803205,74.9495564 C397.198793,75.8327564 396.559811,76.691423 395.889605,77.5244412 C395.448005,78.1645382 394.74769,78.5760291 393.976005,78.6540897" id="Fill-133" fill="#212121"></path>
                            <path d="M442.085425,70.7543564 C441.470977,70.7142109 440.882177,70.4922958 440.392625,70.1164897 C437.939292,68.448223 435.485959,66.6327564 433.572359,65.062623 C431.616383,63.5337503 429.748504,61.8967079 427.979874,60.1559564 C427.045377,59.2515685 426.220165,58.2367806 425.525425,57.1383564 C424.966735,56.2774594 424.910977,55.1812655 425.379341,54.2679564 C425.700504,53.5709867 425.962565,52.8483685 426.164407,52.1079079 C426.400819,51.0841988 427.199268,50.2846352 428.224092,50.048223 C429.213232,49.819617 430.23025,49.7437867 431.241692,49.8263079 C433.180941,49.9233261 435.107922,50.1697745 437.007025,50.563423 C440.392625,51.2247079 443.902007,52.035423 447.409159,53.0167564 C447.686832,53.0925867 447.957813,53.19072 448.218759,53.3100412 C449.406395,53.6557382 450.096674,54.8913261 449.765474,56.083423 C449.568092,57.0892897 449.322759,58.070623 449.052892,59.0263079 C447.974541,62.7163442 446.319656,66.2101139 444.147341,69.3804897 C443.758153,70.1767079 442.970856,70.7019442 442.085425,70.7543564" id="Fill-135" fill="#212121"></path>
                            <polygon id="Fill-137" fill="#020303" points="447.875738 55.7401794 446.084805 55.3231127 447.875738 55.6911127 446.084805 55.3231127"></polygon>
                            <path d="M383.230739,65.5532897 C382.377648,65.5711321 381.595927,65.0782352 381.243539,64.3020897 C380.826473,63.4913745 380.507539,62.6583564 380.164073,61.8487564 C379.267491,59.4679079 378.617358,57.0023079 378.225939,54.4887564 C377.989527,52.9453867 377.857939,51.3886352 377.833406,49.8263079 C377.725236,48.5851442 378.643006,47.4911806 379.885285,47.3818958 C379.936582,47.3774352 379.988994,47.3740897 380.041406,47.3740897 C381.193358,47.3138715 382.347539,47.3138715 383.500606,47.3740897 L385.684073,47.3740897 C387.719224,47.3740897 390.026473,47.4967564 392.283539,47.6919079 C394.300848,47.7922715 396.305891,48.0799806 398.268558,48.5516897 C398.925382,48.7256533 399.565479,48.9553745 400.183273,49.238623 C401.076509,49.6043927 401.723297,50.3994958 401.900606,51.3484897 C402.044461,52.1881988 402.274182,53.0100655 402.586424,53.801823 C402.897552,54.7050958 402.70017,55.7065018 402.072339,56.4257745 C401.311806,57.3948412 400.390691,58.2245139 399.349139,58.880223 C397.267152,60.0912776 395.111564,61.1718594 392.896873,62.118623 C389.534691,63.4679564 387.082473,64.4983564 384.629139,65.3815564 L384.137358,65.5287564 C383.850764,65.6101624 383.554133,65.651423 383.254158,65.651423 L383.230739,65.5532897 Z" id="Fill-139" fill="#212121"></path>
                            <polygon id="Fill-141" fill="#020303" points="383.230739 61.8974885 383.991273 63.542337 383.401358 61.8974885"></polygon>
                            <path d="M384.603937,62.6336 L384.62847,62.6336 L384.603937,62.6336 Z" id="Fill-143" fill="#020303"></path>
                            <path d="M429.990827,48.3304436 L428.32256,48.3304436 C426.974342,48.4664921 425.772208,47.4829285 425.63616,46.1347103 C425.52799,45.0552436 426.141324,44.0326497 427.14496,43.6200436 C428.205469,42.9743709 429.322851,42.4234861 430.481493,41.9763103 C434.627627,40.3091588 439.118342,38.7379103 445.201493,36.8744921 C445.459093,36.78528 445.721154,36.71168 445.98656,36.652577 C447.170851,36.3024194 448.41759,36.96928 448.784475,38.1491103 C449.102293,39.1304436 449.37216,40.111777 449.59296,41.1176436 C449.905202,42.4848194 450.133808,43.8698376 450.279893,45.263777 C450.421518,45.9741285 450.241978,46.7101285 449.789227,47.2755103 C449.292984,47.8130133 448.582633,48.1018376 447.852208,48.060577 L441.20256,48.060577 L430.67776,48.3304436 L429.990827,48.3304436 Z" id="Fill-145" fill="#212121"></path>
                            <path d="M400.47745,45.9259539 C399.440359,45.8144388 398.414419,45.6181721 397.410783,45.3382691 C391.964383,43.9632873 386.616116,42.2716024 382.00385,40.7494206 C381.669304,40.6401358 381.34145,40.509663 381.022516,40.3580024 C379.917401,39.9911176 379.316335,38.7956752 379.684335,37.69056 C379.695486,37.6548752 379.708868,37.6203055 379.72225,37.5857358 C379.992116,36.7259539 380.31105,35.8918206 380.654516,35.1312873 C381.273425,33.6927418 381.978201,32.2909964 382.764383,30.9372024 C383.068819,30.33056 383.610783,29.8766933 384.260916,29.6860024 C384.917741,29.5521842 385.600213,29.6938085 386.149983,30.0774206 C387.00865,30.6171539 387.81825,31.2070691 388.603316,31.7947539 L389.339316,32.3344873 C391.35105,33.7585358 393.362783,35.1803539 395.39905,36.5787539 L399.864116,39.6710691 C400.732819,40.2576388 401.553571,40.914463 402.31745,41.6326206 C403.306589,42.6552145 403.279825,44.2866812 402.257232,45.2758206 C401.778832,45.7374933 401.14208,45.9962085 400.47745,45.9995539 L400.47745,45.9259539 Z" id="Fill-147" fill="#212121"></path>
                            <path d="M381.464339,38.1493333 L383.206206,38.7381333 L381.464339,38.1493333 Z" id="Fill-149" fill="#020303"></path>
                            <path d="M424.495695,40.9219345 C423.825488,40.9163588 423.184276,40.6520679 422.704761,40.1859345 C422.090313,39.6105164 421.425682,39.0930861 420.717561,38.6403345 C419.855549,38.0682618 419.374919,37.0702012 419.466361,36.0398012 C419.592373,34.7439952 419.922458,33.477183 420.447695,32.2862012 C421.494822,29.9020073 422.700301,27.5914133 424.054095,25.3678012 C425.451379,22.9144679 426.751646,20.8770861 428.077561,18.9155345 C428.242604,18.6512436 428.423258,18.3981042 428.617295,18.1550012 C429.269658,17.1201406 430.622337,16.7833648 431.683961,17.3933527 C433.584179,18.4560921 435.390725,19.6782982 437.081295,21.0499345 C439.282604,22.8408679 441.266458,24.8827103 442.993828,27.1342012 C443.793392,28.0363588 443.70864,29.4169164 442.805367,30.2153648 C442.764107,30.2543952 442.719501,30.2889648 442.674895,30.3235345 C441.952276,30.95248 441.190628,31.5334739 440.393295,32.0654012 L439.976228,32.3843345 C436.880567,34.6425164 433.672276,36.7390012 430.359161,38.6648679 C428.970798,39.4889648 427.497682,40.1625164 425.967695,40.6754861 L425.207161,40.8483345 L424.691961,40.8483345 L424.495695,40.9219345 Z" id="Fill-151" fill="#212121"></path>
                            <path d="M404.501362,40.2096873 C404.096562,40.2018812 403.697338,40.11936 403.322647,39.9643539 C402.442793,39.545057 401.618696,39.0187055 400.869314,38.3942206 C399.469799,37.2690327 398.142768,36.0557479 396.896029,34.7632873 C394.565362,32.3099539 392.210162,29.5878691 389.683229,26.4464873 C389.513726,26.2446448 389.357605,26.0316509 389.217096,25.8086206 L389.045362,25.5632873 C388.375156,24.5964509 388.592611,23.2727661 389.534914,22.5713358 C391.959253,20.3276509 394.673532,18.421857 397.606381,16.9041358 C399.144175,16.1168388 400.734381,15.4354812 402.366962,14.8667539 C403.467617,14.4095418 404.731084,14.9325479 405.188296,16.0332024 C405.196102,16.0532752 405.205023,16.0733479 405.212829,16.0934206 C405.525072,16.7859297 405.787132,17.4996267 405.997896,18.2278206 C407.260247,22.028257 408.316296,25.8933721 409.162696,29.8086691 C409.542962,31.4167176 409.758187,33.0615661 409.800562,34.7142206 L409.800562,35.9910691 C409.703544,36.8865358 409.170502,37.676063 408.377629,38.0998206 C407.634938,38.522463 406.929047,39.0075539 406.267762,39.5472873 C405.777096,39.97216 405.149265,40.2063418 404.501362,40.2096873" id="Fill-153" fill="#212121"></path>
                            <path d="M415.368625,36.9231127 L415.099874,36.9231127 C414.00145,36.8751612 413.069183,36.1034764 412.818274,35.0340461 C412.57071,33.8787491 412.415704,32.7056097 412.351025,31.5246642 C412.154759,28.8750642 412.082274,26.2511127 412.033207,23.4543127 L412.033207,22.8409794 L412.033207,20.3876461 L412.033207,15.6527127 C412.019825,15.4241067 412.019825,15.1943855 412.033207,14.9657794 C412.072238,13.8093673 413.035728,12.9016339 414.191025,12.9283976 C415.511365,12.9362036 416.830589,13.0176097 418.140892,13.1748461 C419.351947,13.3086642 420.55631,13.5060461 421.748407,13.7625309 C422.403001,13.8483976 422.995147,14.1929794 423.391025,14.7204461 C423.709959,15.2601794 423.791365,15.9091976 423.612941,16.5102642 C423.416674,17.3209794 423.146807,18.1294642 422.901474,18.9647127 L422.704092,19.5278642 C421.575559,23.0372461 420.520625,26.5700461 419.466807,30.1262642 L418.803292,32.3353794 C418.501086,33.4115006 418.133086,34.4686642 417.700407,35.5001794 C417.294492,36.3778036 416.410177,36.9353794 415.442225,36.9231127 L415.368625,36.9231127 Z" id="Fill-155" fill="#212121"></path>
                            <path d="M414.068359,81.5737794 L415.687559,81.5737794 L416.866274,81.5737794 L416.866274,81.1076461 L416.866274,80.7139976 C416.717959,78.0409794 416.521692,75.8084461 416.302007,73.5513794 C416.104625,71.5240339 415.802419,69.5100703 415.393159,67.5161794 C415.228116,66.6708945 414.964941,65.8467976 414.608092,65.0617309 C413.889935,65.1107976 413.168432,65.1107976 412.450274,65.0617309 C412.061086,65.5323248 411.72431,66.0419491 411.443292,66.5839127 C410.339292,68.6536339 409.388068,70.8025309 408.598541,73.0105309 C407.493425,75.8820461 406.659292,78.3097309 405.972359,80.5913309 C408.615268,81.2816097 411.338468,81.6116945 414.068359,81.5737794" id="Fill-157" fill="#74848C"></path>
                            <path d="M424.421648,66.2404461 L424.740582,67.1470642 C425.770982,70.0419976 426.776848,72.9123976 427.758182,75.8084461 L428.077115,76.7897794 C428.224315,77.2793309 428.371515,77.7454642 428.543248,78.2372461 C429.401915,77.7945309 430.309648,77.3049794 431.241915,76.7161794 L432.002448,76.2500461 C430.628582,74.3364461 429.133164,72.3247127 427.095782,69.7732461 C426.335248,68.6926642 425.378448,67.4414642 424.421648,66.2404461" id="Fill-159" fill="#74848C"></path>
                            <path d="M390.73727,71.7355782 C391.65727,72.683457 392.631913,73.5755782 393.656737,74.4085964 L394.907937,72.691263 L395.128737,72.3734448 C397.28767,69.3803782 399.12767,66.7798448 400.845004,64.1547782 L398.955937,65.5777115 C397.14047,66.9749964 395.301585,68.3499782 393.46047,69.7238448 L390.73727,71.7355782 Z" id="Fill-161" fill="#74848C"></path>
                            <path d="M428.788582,55.5920873 C429.29263,56.333663 429.87697,57.0161358 430.530448,57.6283539 C432.204291,59.2364024 433.96623,60.7518933 435.805115,62.1670206 C437.620582,63.5910691 439.558715,65.0876024 441.619515,66.5094206 C443.291127,63.8798933 444.571321,61.0195297 445.422182,58.0220024 C445.593915,57.5068024 445.717697,56.9659539 445.839248,56.4262206 C442.601964,55.5430206 439.386982,54.7824873 436.246715,54.1936873 C434.531612,53.8379539 432.794206,53.6082327 431.045648,53.5078691 C430.540485,53.4420752 430.029745,53.4420752 429.524582,53.5078691 C429.321624,54.2171055 429.075176,54.91296 428.788582,55.5920873" id="Fill-163" fill="#74848C"></path>
                            <path d="M381.586337,51.0051345 C381.634288,51.9998497 381.741343,52.9912194 381.90527,53.9736679 C382.252082,56.2262739 382.827501,58.4376194 383.622604,60.5731345 L384.065319,61.6269527 C386.199719,60.8184679 388.504737,59.8862012 391.424204,58.6350012 C393.488349,57.7529164 395.495622,56.7437042 397.43487,55.6174012 C398.005828,55.2795103 398.53887,54.8847467 399.030652,54.4398012 C398.788664,53.7662497 398.591282,53.0770861 398.440737,52.3778861 L397.410337,52.0355345 C395.628325,51.6363103 393.813973,51.390977 391.98847,51.2995345 C389.805004,51.1266861 387.57247,51.0542012 385.635452,51.0051345 L381.586337,51.0051345 Z" id="Fill-165" fill="#74848C"></path>
                            <path d="M445.56927,40.5287321 C440.933585,42.0007321 437.203404,43.2764655 433.817804,44.5767321 L441.055137,44.3804655 L446.403404,44.3804655 C446.256204,43.5229139 446.109004,42.7121988 445.93727,41.9271321 C445.766652,41.1420655 445.691937,40.9703321 445.56927,40.5287321" id="Fill-167" fill="#74848C"></path>
                            <path d="M383.671782,37.4620655 C387.302715,38.6407806 391.400897,39.9153988 395.594982,41.0929988 L393.337915,39.5239806 C391.277115,38.0999321 389.240848,36.7015321 387.204582,35.2551806 L386.444048,34.6909139 L385.31663,33.8801988 C384.849382,34.7310594 384.432315,35.6075685 384.06543,36.5063806 C383.91823,36.7996655 383.794448,37.1431321 383.671782,37.4620655" id="Fill-169" fill="#74848C"></path>
                            <path d="M423.195428,35.8678448 C423.775307,36.2603782 424.323961,36.6941721 424.839161,37.1681115 C426.107088,36.7476994 427.324834,36.1878933 428.468979,35.4998448 C431.695113,33.6420024 434.824228,31.6191176 437.841828,29.4401115 L438.258895,29.1211782 L439.264761,28.4097115 C437.903161,26.7838206 436.392131,25.2884024 434.750628,23.9446448 C433.545149,22.9688873 432.274992,22.0745358 430.947961,21.2705115 C429.745828,23.1105115 428.494628,25.0731782 427.217779,27.2811782 C425.962119,29.3453236 424.846967,31.4931055 423.882361,33.7077964 C423.555622,34.3947297 423.324785,35.1206933 423.195428,35.8678448" id="Fill-171" fill="#74848C"></path>
                            <path d="M392.822827,24.5333333 C395.27616,27.4528 397.41056,30.0042667 399.594027,32.3104 C400.682415,33.4723879 401.837712,34.569697 403.053227,35.5978667 C403.455796,35.9168 403.881784,36.2045091 404.32896,36.4565333 C404.887651,36.0338909 405.46976,35.6402424 406.070827,35.2789333 C406.057445,35.1897212 406.057445,35.0993939 406.070827,35.0090667 C406.049639,33.5359515 405.860063,32.0717576 405.50656,30.6421333 C404.688039,26.9175273 403.66433,23.2397576 402.439893,19.6266667 C402.37633,19.3757576 402.294924,19.1293091 402.19456,18.8906667 C401.156354,19.2921212 400.140451,19.7504485 399.152427,20.2645333 C396.880863,21.432097 394.755384,22.8650667 392.822827,24.5333333" id="Fill-173" fill="#74848C"></path>
                            <path d="M415.663806,16.6086206 L415.663806,20.2897358 L415.663806,22.7419539 L415.663806,23.2816873 C415.663806,25.2443539 415.663806,27.1088873 415.834424,28.9254691 C416.890473,25.3670206 417.945406,21.8096873 419.098473,18.2768873 L419.269091,17.6892024 C419.269091,17.4427539 419.441939,17.1974206 419.515539,16.9532024 L417.724606,16.7078691 C417.064436,16.6420752 416.400921,16.6097358 415.736291,16.6086206 L415.663806,16.6086206 Z" id="Fill-175" fill="#74848C"></path>
                            <path d="M414.068359,0 C386.970177,0 365.001692,21.9673697 365.001692,49.0666667 C365.001692,76.1659636 386.970177,98.1333333 414.068359,98.1333333 C441.167656,98.1333333 463.135025,76.1659636 463.135025,49.0666667 C463.135025,21.9673697 441.167656,0 414.068359,0 M414.068359,7.36 C437.102928,7.36 455.775025,26.0332121 455.775025,49.0666667 C455.775025,72.1001212 437.102928,90.7733333 414.068359,90.7733333 C391.034904,90.7733333 372.362807,72.1001212 372.362807,49.0666667 C372.362807,26.0332121 391.034904,7.36 414.068359,7.36" id="Fill-177" fill="#212121"></path>
                            <path d="M414.068359,45.3868897 C416.10128,45.3868897 417.749474,47.0350836 417.749474,49.0668897 C417.749474,51.0986958 416.10128,52.7468897 414.068359,52.7468897 C412.036553,52.7468897 410.388359,51.0986958 410.388359,49.0668897 C410.388359,47.0350836 412.036553,45.3868897 414.068359,45.3868897" id="Fill-179" fill="#020303"></path>
                        </g>
                    </g>
                    <g class="site-starman_graphic-moon" transform="translate(447.000000, 26.000000)">
                        <a href="/" class="site-404--phone_home">
                            <circle fill="#F7F7F7" cx="105" cy="105" r="105"></circle>
                            <path d="M33.5106383,28.0247695 C52.2474417,10.6336525 77.3440558,0 104.924292,0 C162.914191,0 209.924292,47.0101013 209.924292,105 C209.924292,130.901703 200.545582,154.61289 184.998833,172.922891 C190.267977,159.878555 193.168973,145.623804 193.168973,130.691489 C193.168973,68.3831939 142.65812,17.8723404 80.3498244,17.8723404 C63.639285,17.8723404 47.7772948,21.5054116 33.5106383,28.0247695 Z" id="Combined-Shape" fill="#CFD5CF"></path>
                            <circle stroke="#171a20" stroke-width="4" cx="105" cy="105" r="107"></circle>
                            <circle fill="#CFD5CF" cx="39.6542553" cy="82.1010638" r="8.37765957"></circle>
                            <circle fill="#CFD5CF" cx="60.8776596" cy="110.026596" r="12.8457447"></circle>
                            <circle fill="#CFD5CF" cx="23.4574468" cy="110.585106" r="7.81914894"></circle>
                            <circle fill="#CFD5CF" cx="101.090426" cy="190.452128" r="3.90957447"></circle>
                            <circle fill="#CFD5CF" cx="117.845745" cy="198.271277" r="3.90957447"></circle>
                            <circle fill="#CFD5CF" cx="120.638298" cy="179.840426" r="6.70212766"></circle>
                            <circle fill="#CFD5CF" cx="140.18617" cy="187.101064" r="3.90957447"></circle>
                        </a>
                    </g>
                    <g id="site-starman_graphic-sky" transform="translate(68.000000, 88.000000)">
                        <polygon class="site-starman_graphic-star" fill="#0D1C30" points="206.585085 131.663158 206.585085 136.265789 201.980969 136.265789 201.980969 139.334211 206.585085 139.334211 206.585085 143.936842 209.653473 143.936842 209.653473 139.334211 214.256055 139.334211 214.256055 136.265789 209.653473 136.265789 209.653473 131.663158"></polygon>
                        <polygon class="site-starman_graphic-star" fill="#0D1C30" points="83.8342201 12.2736842 83.8342201 16.8763158 79.2301038 16.8763158 79.2301038 19.9447368 83.8342201 19.9447368 83.8342201 24.5473684 86.9026082 24.5473684 86.9026082 19.9447368 91.5051903 19.9447368 91.5051903 16.8763158 86.9026082 16.8763158 86.9026082 12.2736842"></polygon>
                        <polygon class="site-starman_graphic-star" fill="#0D1C30" points="257.917265 0 257.917265 4.60263158 253.313149 4.60263158 253.313149 7.67105263 257.917265 7.67105263 257.917265 12.2736842 260.985653 12.2736842 260.985653 7.67105263 265.588235 7.67105263 265.588235 4.60263158 260.985653 4.60263158 260.985653 0"></polygon>
                        <polygon class="site-starman_graphic-star" fill="#0D1C30" points="55.9362962 185.221053 55.9362962 189.823684 51.3321799 189.823684 51.3321799 192.892105 55.9362962 192.892105 55.9362962 197.494737 59.0046843 197.494737 59.0046843 192.892105 63.6072664 192.892105 63.6072664 189.823684 59.0046843 189.823684 59.0046843 185.221053"></polygon>
                        <polygon class="site-starman_graphic-star" fill="#0D1C30" points="588.228684 290.105263 588.228684 294.707895 583.624567 294.707895 583.624567 297.776316 588.228684 297.776316 588.228684 302.378947 591.297072 302.378947 591.297072 297.776316 595.899654 297.776316 595.899654 294.707895 591.297072 294.707895 591.297072 290.105263"></polygon>
                        <polygon class="site-starman_graphic-star" fill="#0D1C30" points="344.958788 445.2 344.958788 449.802632 340.354671 449.802632 340.354671 452.871053 344.958788 452.871053 344.958788 457.473684 348.027176 457.473684 348.027176 452.871053 352.629758 452.871053 352.629758 449.802632 348.027176 449.802632 348.027176 445.2"></polygon>
                        <polygon class="site-starman_graphic-star" fill="#0D1C30" points="164.180241 517.726316 164.180241 522.328947 159.576125 522.328947 159.576125 525.397368 164.180241 525.397368 164.180241 530 167.248629 530 167.248629 525.397368 171.851211 525.397368 171.851211 522.328947 167.248629 522.328947 167.248629 517.726316"></polygon>
                        <rect class="site-starman_graphic-streak" fill="#CFD5CF" x="0" y="73.6421053" width="265.588235" height="10.0421053" rx="5.02105263"></rect>
                        <rect class="site-starman_graphic-streak" fill="#CFD5CF" x="169.619377" y="92.6105263" width="132.794118" height="10.0421053" rx="5.02105263"></rect>
                        <rect class="site-starman_graphic-streak" fill="#CFD5CF" x="379.411765" y="389.410526" width="265.588235" height="10.0421053" rx="5.02105263"></rect>
                        <rect class="site-starman_graphic-streak" fill="#CFD5CF" x="313.572664" y="408.378947" width="132.794118" height="10.0421053" rx="5.02105263"></rect>
                    </g>
                </g>
            </g>
        </g>
    </g>
</svg>
